<svg width="14" height="14" viewBox="0 0 14 14" fill="none" xmlns="http://www.w3.org/2000/svg">
<path d="M5.61318 6.57353C5.61318 6.57353 6.92918 6.47141 6.92918 4.86388C6.93 3.25553 5.85282 2.4707 4.48906 2.4707H0V11.4571H4.48906C4.48906 11.4571 7.22894 11.5476 7.22894 8.80364C7.22894 8.80364 7.34835 6.57353 5.61318 6.57353ZM1.97812 4.06835H4.48823C4.48823 4.06835 5.09847 4.06835 5.09847 5.00388C5.09847 5.93859 4.73941 6.07447 4.33259 6.07447H1.97812V4.06835ZM4.36141 9.86023H1.97812V7.458H4.48823C4.48823 7.458 5.39741 7.44647 5.39741 8.69164C5.39824 9.74329 4.71882 9.852 4.36141 9.86023ZM10.8829 4.75764C7.56659 4.75764 7.56988 8.20906 7.56988 8.20906C7.56988 8.20906 7.34176 11.6456 10.8829 11.6456C10.8829 11.6456 13.8345 11.8219 13.8345 9.25576H12.3175C12.3175 9.25576 12.3678 10.2226 10.934 10.2226C10.934 10.2226 9.41459 10.3288 9.41459 8.65788H13.8855C13.8855 8.65706 14.3739 4.75764 10.8829 4.75764ZM12.2327 7.458H9.39976C9.39976 7.458 9.58506 6.07447 10.9175 6.07447C12.2484 6.07364 12.2327 7.458 12.2327 7.458ZM12.5852 3.00023H9.02753V4.10788H12.5852V3.00023Z" fill="black"/>
</svg>
